<svg width="148" height="72" viewBox="0 0 148 72" fill="none" xmlns="http://www.w3.org/2000/svg">
<path d="M10.9773 56.3209V71.2528H2.64209V36.3437H10.7046V49.8778H10.9944C11.5853 48.2641 12.5512 47.0028 13.8921 46.0937C15.2444 45.1846 16.8978 44.73 18.8523 44.73C20.6932 44.73 22.2955 45.1391 23.6591 45.9573C25.0228 46.7641 26.0796 47.9062 26.8296 49.3834C27.591 50.8607 27.966 52.588 27.9546 54.5653V71.2528H19.6194V56.2016C19.6307 54.7471 19.2671 53.6107 18.5285 52.7925C17.7898 51.9743 16.75 51.5653 15.4091 51.5653C14.5341 51.5653 13.7614 51.7584 13.091 52.1448C12.4319 52.5198 11.9148 53.0596 11.5398 53.7641C11.1762 54.4687 10.9887 55.3209 10.9773 56.3209Z" fill="#57534E"/>
<path d="M40.5384 71.6959C38.8679 71.6959 37.385 71.4175 36.0895 70.8607C34.8054 70.2925 33.7884 69.4403 33.0384 68.3039C32.2998 67.1562 31.9304 65.7187 31.9304 63.9914C31.9304 62.5368 32.1861 61.3096 32.6975 60.3096C33.2089 59.3096 33.9134 58.4971 34.8111 57.8721C35.7089 57.2471 36.7429 56.7755 37.9134 56.4573C39.0839 56.1278 40.3339 55.9062 41.6634 55.7925C43.152 55.6562 44.3509 55.5141 45.26 55.3664C46.1691 55.2073 46.8282 54.9857 47.2373 54.7016C47.6577 54.4062 47.8679 53.9914 47.8679 53.4573V53.3721C47.8679 52.4971 47.5668 51.8209 46.9645 51.3437C46.3623 50.8664 45.5498 50.6278 44.527 50.6278C43.4248 50.6278 42.5384 50.8664 41.8679 51.3437C41.1975 51.8209 40.7714 52.48 40.5895 53.3209L32.902 53.0482C33.1293 51.4573 33.7145 50.0368 34.6577 48.7868C35.6123 47.5255 36.9191 46.5368 38.5782 45.8209C40.2486 45.0937 42.2543 44.73 44.5952 44.73C46.2657 44.73 47.8054 44.9289 49.2145 45.3266C50.6236 45.713 51.8509 46.2812 52.8964 47.0312C53.9418 47.7698 54.7486 48.6789 55.3168 49.7584C55.8964 50.838 56.1861 52.0709 56.1861 53.4573V71.2528H48.3452V67.605H48.1407C47.6748 68.4914 47.0782 69.2414 46.3509 69.855C45.635 70.4687 44.7884 70.9289 43.8111 71.2357C42.8452 71.5425 41.7543 71.6959 40.5384 71.6959ZM43.1123 66.2414C44.01 66.2414 44.8168 66.0596 45.5327 65.6959C46.26 65.3323 46.8395 64.8323 47.2714 64.1959C47.7032 63.5482 47.9191 62.7982 47.9191 61.9459V59.4573C47.6804 59.5823 47.3907 59.6959 47.0498 59.7982C46.7202 59.9005 46.3566 59.9971 45.9589 60.088C45.5611 60.1789 45.152 60.2584 44.7316 60.3266C44.3111 60.3948 43.9077 60.4573 43.5214 60.5141C42.7373 60.6391 42.0668 60.8323 41.51 61.0937C40.9645 61.355 40.5441 61.6959 40.2486 62.1164C39.9645 62.5255 39.8225 63.0141 39.8225 63.5823C39.8225 64.4459 40.1293 65.105 40.7429 65.5596C41.3679 66.0141 42.1577 66.2414 43.1123 66.2414Z" fill="#57534E"/>
<path d="M61.2827 71.2528V36.3437H69.6179V49.5539H69.7884C70.1293 48.7584 70.6123 47.9914 71.2373 47.2528C71.8736 46.5141 72.6804 45.9118 73.6577 45.4459C74.6463 44.9687 75.8282 44.73 77.2032 44.73C79.0214 44.73 80.7202 45.2073 82.2998 46.1618C83.8907 47.1164 85.1748 48.588 86.152 50.5766C87.1293 52.5653 87.6179 55.0993 87.6179 58.1789C87.6179 61.1448 87.1464 63.6278 86.2032 65.6278C85.2714 67.6278 84.01 69.1278 82.4191 70.1278C80.8395 71.1278 79.0838 71.6278 77.152 71.6278C75.8338 71.6278 74.6918 71.4118 73.7259 70.98C72.76 70.5482 71.9475 69.98 71.2884 69.2755C70.6407 68.5709 70.1407 67.8153 69.7884 67.0084H69.5327V71.2528H61.2827ZM69.4475 58.1618C69.4475 59.5709 69.635 60.7982 70.01 61.8437C70.3963 62.8891 70.9475 63.7016 71.6634 64.2812C72.3907 64.8493 73.26 65.1334 74.2714 65.1334C75.2941 65.1334 76.1634 64.8493 76.8793 64.2812C77.5952 63.7016 78.135 62.8891 78.4986 61.8437C78.8736 60.7982 79.0611 59.5709 79.0611 58.1618C79.0611 56.7528 78.8736 55.5312 78.4986 54.4971C78.135 53.463 77.5952 52.6618 76.8793 52.0937C76.1748 51.5255 75.3054 51.2414 74.2714 51.2414C73.2486 51.2414 72.3793 51.5198 71.6634 52.0766C70.9475 52.6334 70.3963 53.4289 70.01 54.463C69.635 55.4971 69.4475 56.73 69.4475 58.1618Z" fill="#57534E"/>
<path d="M91.9858 71.2528V45.0709H100.321V71.2528H91.9858ZM96.162 42.0198C94.9915 42.0198 93.9858 41.6334 93.1449 40.8607C92.304 40.0766 91.8836 39.1334 91.8836 38.0312C91.8836 36.9403 92.304 36.0084 93.1449 35.2357C93.9858 34.4516 94.9915 34.0596 96.162 34.0596C97.3438 34.0596 98.3495 34.4516 99.179 35.2357C100.02 36.0084 100.44 36.9403 100.44 38.0312C100.44 39.1334 100.02 40.0766 99.179 40.8607C98.3495 41.6334 97.3438 42.0198 96.162 42.0198Z" fill="#57534E"/>
<path d="M120.405 45.0709V51.2073H103.888V45.0709H120.405ZM107.348 38.7982H115.683V63.0198C115.683 63.5312 115.763 63.9459 115.922 64.2641C116.092 64.5709 116.337 64.7925 116.655 64.9289C116.973 65.0539 117.354 65.1164 117.797 65.1164C118.115 65.1164 118.45 65.088 118.803 65.0312C119.166 64.963 119.439 64.9062 119.621 64.8607L120.882 70.8778C120.484 70.9914 119.922 71.1334 119.195 71.3039C118.479 71.4743 117.621 71.5823 116.621 71.6278C114.666 71.7187 112.99 71.4914 111.592 70.9459C110.206 70.3891 109.144 69.5255 108.405 68.355C107.678 67.1846 107.325 65.713 107.348 63.9403V38.7982Z" fill="#57534E"/>
<path d="M147.188 53.0653L139.534 53.2698C139.455 52.7243 139.239 52.2414 138.886 51.8209C138.534 51.3891 138.074 51.0539 137.506 50.8153C136.949 50.5653 136.301 50.4403 135.563 50.4403C134.597 50.4403 133.773 50.6334 133.091 51.0198C132.421 51.4062 132.091 51.9289 132.102 52.588C132.091 53.0993 132.296 53.5425 132.716 53.9175C133.148 54.2925 133.915 54.5937 135.017 54.8209L140.063 55.7755C142.676 56.2755 144.619 57.105 145.892 58.2641C147.176 59.4232 147.824 60.9573 147.835 62.8664C147.824 64.6618 147.29 66.2243 146.233 67.5539C145.188 68.8834 143.756 69.9175 141.938 70.6562C140.119 71.3834 138.04 71.7471 135.699 71.7471C131.96 71.7471 129.011 70.98 126.852 69.4459C124.705 67.9005 123.477 65.8323 123.171 63.2414L131.403 63.0368C131.585 63.9914 132.057 64.7187 132.818 65.2187C133.58 65.7187 134.551 65.9687 135.733 65.9687C136.801 65.9687 137.671 65.7698 138.341 65.3721C139.011 64.9743 139.352 64.4459 139.364 63.7868C139.352 63.1959 139.091 62.7243 138.58 62.3721C138.068 62.0084 137.267 61.7243 136.176 61.5198L131.608 60.6505C128.983 60.1732 127.028 59.2925 125.744 58.0084C124.46 56.713 123.824 55.0653 123.835 53.0653C123.824 51.3153 124.29 49.8209 125.233 48.5823C126.176 47.3323 127.517 46.3778 129.256 45.7187C130.994 45.0596 133.046 44.73 135.409 44.73C138.955 44.73 141.75 45.4743 143.796 46.963C145.841 48.4403 146.972 50.4743 147.188 53.0653Z" fill="#57534E"/>
<rect x="0.5" y="0.752808" width="15" height="15" rx="3.5" fill="#E4F2F1" stroke="#F5F5F4"/>
<rect x="20.5" y="0.752808" width="15" height="15" rx="3.5" fill="#6AB4AC" stroke="#91C9C4"/>
<rect x="40.5" y="0.752808" width="15" height="15" rx="3.5" fill="#429488" stroke="#91C9C4"/>
<rect x="60.5" y="0.752808" width="15" height="15" rx="3.5" fill="#3C877B" stroke="#6AB4AC"/>
<rect x="80.5" y="0.752808" width="15" height="15" rx="3.5" fill="#2C685C" stroke="#3C877B"/>
</svg>
