<?xml version="1.0" encoding="utf-8"?>
<!-- Generator: Adobe Illustrator 27.1.1, SVG Export Plug-In . SVG Version: 6.00 Build 0)  -->
<svg version="1.1" id="Layer_1" xmlns="http://www.w3.org/2000/svg" xmlns:xlink="http://www.w3.org/1999/xlink" x="0px" y="0px"
	 viewBox="0 0 116 64" style="enable-background:new 0 0 116 64;" xml:space="preserve">
<style type="text/css">
	.st0{fill:#5B5B50;}
	.st1{fill:#E3E5E2;stroke:#D9DBD8;}
	.st2{fill:#9CC8C5;stroke:#7DB1B4;}
	.st3{fill:#8EBDBE;stroke:#6DACAC;}
	.st4{fill:#7DB1B4;stroke:#5CA69B;}
	.st5{fill:#6DACAC;stroke:#4F907F;}
	.st6{fill:#5CA69B;stroke:#487868;}
</style>
<path class="st0" d="M7.3,46v10H1.8V32.7h5.4v9h0.2c0.4-1.1,1-1.9,1.9-2.5c0.9-0.6,2-0.9,3.3-0.9c1.2,0,2.3,0.3,3.2,0.8
	c0.9,0.5,1.6,1.3,2.1,2.3c0.5,1,0.8,2.1,0.8,3.5V56h-5.6V46c0-1-0.2-1.7-0.7-2.3c-0.5-0.5-1.2-0.8-2.1-0.8c-0.6,0-1.1,0.1-1.5,0.4
	c-0.4,0.2-0.8,0.6-1,1.1C7.5,44.8,7.3,45.4,7.3,46z M27,56.3c-1.1,0-2.1-0.2-3-0.6c-0.9-0.4-1.5-0.9-2-1.7c-0.5-0.8-0.7-1.7-0.7-2.9
	c0-1,0.2-1.8,0.5-2.5c0.3-0.7,0.8-1.2,1.4-1.6c0.6-0.4,1.3-0.7,2.1-0.9c0.8-0.2,1.6-0.4,2.5-0.4c1-0.1,1.8-0.2,2.4-0.3
	c0.6-0.1,1-0.3,1.3-0.4c0.3-0.2,0.4-0.5,0.4-0.8v-0.1c0-0.6-0.2-1-0.6-1.4c-0.4-0.3-0.9-0.5-1.6-0.5c-0.7,0-1.3,0.2-1.8,0.5
	c-0.4,0.3-0.7,0.8-0.9,1.3l-5.1-0.2c0.2-1.1,0.5-2,1.2-2.8c0.6-0.8,1.5-1.5,2.6-2c1.1-0.5,2.5-0.7,4-0.7c1.1,0,2.1,0.1,3.1,0.4
	c0.9,0.3,1.8,0.6,2.5,1.1c0.7,0.5,1.2,1.1,1.6,1.8c0.4,0.7,0.6,1.5,0.6,2.5V56h-5.2v-2.4h-0.1c-0.3,0.6-0.7,1.1-1.2,1.5
	c-0.5,0.4-1,0.7-1.7,0.9C28.6,56.2,27.8,56.3,27,56.3z M28.7,52.7c0.6,0,1.1-0.1,1.6-0.4c0.5-0.2,0.9-0.6,1.2-1
	c0.3-0.4,0.4-0.9,0.4-1.5v-1.7c-0.2,0.1-0.4,0.2-0.6,0.2c-0.2,0.1-0.5,0.1-0.7,0.2c-0.3,0.1-0.5,0.1-0.8,0.2c-0.3,0-0.5,0.1-0.8,0.1
	c-0.5,0.1-1,0.2-1.3,0.4c-0.4,0.2-0.6,0.4-0.8,0.7c-0.2,0.3-0.3,0.6-0.3,1c0,0.6,0.2,1,0.6,1.3C27.6,52.5,28.1,52.7,28.7,52.7z
	 M40.9,56V32.7h5.6v8.8h0.1c0.2-0.5,0.5-1,1-1.5c0.4-0.5,1-0.9,1.6-1.2c0.7-0.3,1.4-0.5,2.4-0.5c1.2,0,2.3,0.3,3.4,1
	c1.1,0.6,1.9,1.6,2.6,2.9c0.7,1.3,1,3,1,5.1c0,2-0.3,3.6-0.9,5c-0.6,1.3-1.5,2.3-2.5,3c-1.1,0.7-2.2,1-3.5,1c-0.9,0-1.6-0.1-2.3-0.4
	c-0.6-0.3-1.2-0.7-1.6-1.1c-0.4-0.5-0.8-1-1-1.5h-0.2V56H40.9z M46.3,47.3c0,0.9,0.1,1.8,0.4,2.5c0.3,0.7,0.6,1.2,1.1,1.6
	c0.5,0.4,1.1,0.6,1.7,0.6c0.7,0,1.3-0.2,1.7-0.6c0.5-0.4,0.8-0.9,1.1-1.6c0.2-0.7,0.4-1.5,0.4-2.5s-0.1-1.8-0.4-2.4
	c-0.2-0.7-0.6-1.2-1.1-1.6c-0.5-0.4-1-0.6-1.7-0.6c-0.7,0-1.3,0.2-1.7,0.6c-0.5,0.4-0.8,0.9-1.1,1.6C46.4,45.5,46.3,46.3,46.3,47.3z
	 M61.3,56V38.5h5.6V56H61.3z M64.1,36.5c-0.8,0-1.5-0.3-2-0.8c-0.6-0.5-0.8-1.2-0.8-1.9c0-0.7,0.3-1.3,0.8-1.9
	c0.6-0.5,1.2-0.8,2-0.8c0.8,0,1.5,0.3,2,0.8c0.6,0.5,0.8,1.1,0.8,1.9c0,0.7-0.3,1.4-0.8,1.9C65.6,36.3,64.9,36.5,64.1,36.5z
	 M80.3,38.5v4.1h-11v-4.1H80.3z M71.6,34.4h5.6v16.1c0,0.3,0.1,0.6,0.2,0.8c0.1,0.2,0.3,0.4,0.5,0.4c0.2,0.1,0.5,0.1,0.8,0.1
	c0.2,0,0.4,0,0.7-0.1c0.2,0,0.4-0.1,0.5-0.1l0.8,4c-0.3,0.1-0.6,0.2-1.1,0.3c-0.5,0.1-1,0.2-1.7,0.2c-1.3,0.1-2.4-0.1-3.4-0.5
	c-0.9-0.4-1.6-0.9-2.1-1.7c-0.5-0.8-0.7-1.8-0.7-2.9V34.4z M98.1,43.9L93,44c-0.1-0.4-0.2-0.7-0.4-1c-0.2-0.3-0.5-0.5-0.9-0.7
	c-0.4-0.2-0.8-0.2-1.3-0.2c-0.6,0-1.2,0.1-1.6,0.4c-0.4,0.3-0.7,0.6-0.7,1c0,0.3,0.1,0.6,0.4,0.9c0.3,0.2,0.8,0.5,1.5,0.6l3.4,0.6
	c1.7,0.3,3,0.9,3.9,1.7c0.9,0.8,1.3,1.8,1.3,3.1c0,1.2-0.4,2.2-1.1,3.1c-0.7,0.9-1.7,1.6-2.9,2.1c-1.2,0.5-2.6,0.7-4.2,0.7
	c-2.5,0-4.5-0.5-5.9-1.5c-1.4-1-2.2-2.4-2.5-4.1l5.5-0.1c0.1,0.6,0.4,1.1,0.9,1.5c0.5,0.3,1.2,0.5,1.9,0.5c0.7,0,1.3-0.1,1.7-0.4
	c0.4-0.3,0.7-0.6,0.7-1.1c0-0.4-0.2-0.7-0.5-0.9c-0.3-0.2-0.9-0.4-1.6-0.6l-3-0.6c-1.8-0.3-3.1-0.9-3.9-1.8c-0.9-0.9-1.3-2-1.3-3.3
	c0-1.2,0.3-2.2,0.9-3c0.6-0.8,1.5-1.5,2.7-1.9c1.2-0.4,2.5-0.7,4.1-0.7c2.4,0,4.2,0.5,5.6,1.5C97.2,40.8,98,42.1,98.1,43.9z"/>
<path class="st1" d="M4,0.5h8c1.9,0,3.5,1.6,3.5,3.5v8c0,1.9-1.6,3.5-3.5,3.5H4c-1.9,0-3.5-1.6-3.5-3.5V4C0.5,2.1,2.1,0.5,4,0.5z"/>
<path class="st2" d="M24,0.5h8c1.9,0,3.5,1.6,3.5,3.5v8c0,1.9-1.6,3.5-3.5,3.5h-8c-1.9,0-3.5-1.6-3.5-3.5V4
	C20.5,2.1,22.1,0.5,24,0.5z"/>
<path class="st3" d="M44,0.5h8c1.9,0,3.5,1.6,3.5,3.5v8c0,1.9-1.6,3.5-3.5,3.5h-8c-1.9,0-3.5-1.6-3.5-3.5V4
	C40.5,2.1,42.1,0.5,44,0.5z"/>
<path class="st4" d="M64,0.5h8c1.9,0,3.5,1.6,3.5,3.5v8c0,1.9-1.6,3.5-3.5,3.5h-8c-1.9,0-3.5-1.6-3.5-3.5V4
	C60.5,2.1,62.1,0.5,64,0.5z"/>
<path class="st5" d="M84,0.5h8c1.9,0,3.5,1.6,3.5,3.5v8c0,1.9-1.6,3.5-3.5,3.5h-8c-1.9,0-3.5-1.6-3.5-3.5V4
	C80.5,2.1,82.1,0.5,84,0.5z"/>
<path class="st6" d="M104,0.5h8c1.9,0,3.5,1.6,3.5,3.5v8c0,1.9-1.6,3.5-3.5,3.5h-8c-1.9,0-3.5-1.6-3.5-3.5V4
	C100.5,2.1,102.1,0.5,104,0.5z"/>
</svg>
