<svg width="116" height="54" viewBox="0 0 116 54" fill="none" xmlns="http://www.w3.org/2000/svg">
<g clip-path="url(#clip0_623_17)">
<path d="M7.70001 41.79V53.55H1.14001V26.05H7.49001V36.71H7.72001C8.19001 35.44 8.95001 34.45 10 33.73C11.07 33.01 12.37 32.66 13.91 32.66C15.36 32.66 16.62 32.98 17.7 33.63C18.77 34.27 19.61 35.17 20.2 36.33C20.8 37.49 21.1 38.85 21.09 40.41V53.55H14.52V41.69C14.52 40.54 14.24 39.65 13.66 39C13.08 38.36 12.26 38.03 11.2 38.03C10.51 38.03 9.90001 38.18 9.37001 38.49C8.85001 38.79 8.44001 39.21 8.15001 39.77C7.86001 40.32 7.72001 41 7.71001 41.78L7.70001 41.79Z" fill="#57534E"/>
<path d="M30.99 53.9C29.67 53.9 28.51 53.68 27.49 53.24C26.48 52.79 25.68 52.12 25.09 51.23C24.51 50.33 24.22 49.19 24.22 47.83C24.22 46.68 24.42 45.72 24.82 44.93C25.22 44.14 25.78 43.5 26.48 43.01C27.19 42.52 28 42.15 28.92 41.9C29.84 41.64 30.83 41.47 31.87 41.38C33.04 41.27 33.99 41.16 34.7 41.04C35.42 40.91 35.94 40.74 36.26 40.52C36.59 40.29 36.76 39.96 36.76 39.54V39.47C36.76 38.78 36.52 38.25 36.05 37.87C35.58 37.49 34.94 37.31 34.13 37.31C33.26 37.31 32.56 37.5 32.04 37.87C31.51 38.25 31.18 38.77 31.03 39.43L24.97 39.22C25.15 37.97 25.61 36.85 26.35 35.86C27.1 34.87 28.13 34.09 29.44 33.52C30.76 32.95 32.34 32.66 34.18 32.66C35.5 32.66 36.71 32.82 37.82 33.13C38.93 33.43 39.9 33.88 40.72 34.47C41.54 35.05 42.18 35.77 42.63 36.62C43.09 37.47 43.31 38.44 43.31 39.53V53.55H37.13V50.68H36.97C36.6 51.38 36.13 51.97 35.56 52.45C35 52.93 34.33 53.3 33.56 53.54C32.8 53.78 31.94 53.9 30.98 53.9H30.99ZM33.02 49.6C33.73 49.6 34.36 49.46 34.93 49.17C35.5 48.88 35.96 48.49 36.3 47.99C36.64 47.48 36.81 46.89 36.81 46.22V44.26C36.62 44.36 36.39 44.45 36.13 44.53C35.87 44.61 35.58 44.69 35.27 44.76C34.96 44.83 34.63 44.89 34.3 44.95C33.97 45 33.65 45.05 33.35 45.1C32.73 45.2 32.2 45.35 31.77 45.56C31.34 45.77 31.01 46.03 30.78 46.37C30.56 46.69 30.44 47.08 30.44 47.52C30.44 48.2 30.68 48.72 31.16 49.08C31.65 49.44 32.27 49.62 33.03 49.62L33.02 49.6Z" fill="#57534E"/>
<path d="M47.33 53.55V26.05H53.9V36.46H54.03C54.3 35.83 54.68 35.23 55.17 34.65C55.67 34.07 56.31 33.59 57.08 33.23C57.86 32.85 58.79 32.67 59.87 32.67C61.3 32.67 62.64 33.05 63.88 33.8C65.13 34.55 66.14 35.71 66.91 37.28C67.68 38.85 68.06 40.84 68.06 43.27C68.06 45.7 67.69 47.56 66.95 49.14C66.22 50.72 65.22 51.9 63.97 52.68C62.73 53.47 61.34 53.86 59.82 53.86C58.78 53.86 57.88 53.69 57.12 53.35C56.36 53.01 55.72 52.56 55.2 52.01C54.69 51.46 54.3 50.86 54.02 50.22H53.82V53.56H47.32L47.33 53.55ZM53.76 43.24C53.76 44.35 53.91 45.32 54.2 46.14C54.5 46.96 54.94 47.6 55.5 48.06C56.07 48.51 56.76 48.73 57.55 48.73C58.34 48.73 59.04 48.51 59.6 48.06C60.16 47.6 60.59 46.96 60.88 46.14C61.18 45.32 61.32 44.35 61.32 43.24C61.32 42.13 61.17 41.17 60.88 40.35C60.59 39.54 60.17 38.9 59.6 38.46C59.05 38.01 58.36 37.79 57.55 37.79C56.74 37.79 56.06 38.01 55.5 38.45C54.94 38.89 54.5 39.52 54.2 40.33C53.9 41.14 53.76 42.12 53.76 43.24Z" fill="#57534E"/>
<path d="M71.51 53.55V32.93H78.08V53.55H71.51ZM74.8 30.52C73.88 30.52 73.09 30.22 72.42 29.61C71.76 28.99 71.43 28.25 71.43 27.38C71.43 26.51 71.76 25.79 72.42 25.18C73.08 24.56 73.87 24.25 74.8 24.25C75.73 24.25 76.52 24.56 77.18 25.18C77.84 25.79 78.17 26.52 78.17 27.38C78.17 28.24 77.84 28.99 77.18 29.61C76.53 30.22 75.73 30.52 74.8 30.52Z" fill="#57534E"/>
<path d="M93.89 32.93V37.76H80.88V32.93H93.89ZM83.61 27.99H90.18V47.07C90.18 47.47 90.24 47.8 90.37 48.05C90.5 48.29 90.7 48.47 90.95 48.57C91.2 48.67 91.5 48.72 91.85 48.72C92.1 48.72 92.36 48.7 92.64 48.65C92.93 48.6 93.14 48.55 93.28 48.52L94.27 53.26C93.96 53.35 93.51 53.46 92.94 53.6C92.38 53.73 91.7 53.82 90.91 53.86C89.37 53.93 88.05 53.75 86.95 53.32C85.86 52.88 85.02 52.2 84.44 51.28C83.87 50.36 83.59 49.2 83.61 47.8V28V27.99Z" fill="#57534E"/>
<path d="M114.99 39.23L108.96 39.39C108.9 38.96 108.73 38.58 108.45 38.25C108.17 37.91 107.81 37.65 107.36 37.46C106.92 37.26 106.41 37.16 105.83 37.16C105.07 37.16 104.42 37.31 103.88 37.62C103.35 37.92 103.09 38.34 103.1 38.86C103.1 39.26 103.25 39.61 103.58 39.91C103.92 40.21 104.52 40.44 105.39 40.62L109.36 41.37C111.42 41.76 112.95 42.42 113.95 43.33C114.96 44.24 115.47 45.45 115.48 46.96C115.48 48.37 115.05 49.6 114.22 50.65C113.4 51.7 112.27 52.51 110.84 53.09C109.41 53.66 107.77 53.95 105.93 53.95C102.98 53.95 100.66 53.35 98.96 52.14C97.27 50.92 96.3 49.29 96.06 47.25L102.54 47.09C102.68 47.84 103.06 48.41 103.65 48.81C104.25 49.2 105.02 49.4 105.95 49.4C106.79 49.4 107.48 49.24 108 48.93C108.53 48.62 108.8 48.2 108.81 47.68C108.81 47.21 108.59 46.84 108.19 46.57C107.79 46.28 107.16 46.06 106.3 45.9L102.7 45.22C100.63 44.84 99.09 44.15 98.08 43.14C97.07 42.12 96.57 40.82 96.58 39.25C96.58 37.87 96.94 36.69 97.68 35.72C98.42 34.74 99.48 33.98 100.85 33.46C102.22 32.94 103.84 32.68 105.7 32.68C108.49 32.68 110.69 33.27 112.31 34.44C113.92 35.6 114.81 37.21 114.98 39.25L114.99 39.23Z" fill="#57534E"/>
<path d="M12 0.5H4C2.067 0.5 0.5 2.067 0.5 4V12C0.5 13.933 2.067 15.5 4 15.5H12C13.933 15.5 15.5 13.933 15.5 12V4C15.5 2.067 13.933 0.5 12 0.5Z" fill="#F5F5F4" stroke="#E7E5E4"/>
<path d="M32 0.5H24C22.067 0.5 20.5 2.067 20.5 4V12C20.5 13.933 22.067 15.5 24 15.5H32C33.933 15.5 35.5 13.933 35.5 12V4C35.5 2.067 33.933 0.5 32 0.5Z" fill="#6AB4AC" stroke="#91C9C4"/>
<path d="M52 0.5H44C42.067 0.5 40.5 2.067 40.5 4V12C40.5 13.933 42.067 15.5 44 15.5H52C53.933 15.5 55.5 13.933 55.5 12V4C55.5 2.067 53.933 0.5 52 0.5Z" fill="#429488" stroke="#91C9C4"/>
<path d="M72 0.5H64C62.067 0.5 60.5 2.067 60.5 4V12C60.5 13.933 62.067 15.5 64 15.5H72C73.933 15.5 75.5 13.933 75.5 12V4C75.5 2.067 73.933 0.5 72 0.5Z" fill="#3C877B" stroke="#6AB4AC"/>
<path d="M92 0.5H84C82.067 0.5 80.5 2.067 80.5 4V12C80.5 13.933 82.067 15.5 84 15.5H92C93.933 15.5 95.5 13.933 95.5 12V4C95.5 2.067 93.933 0.5 92 0.5Z" fill="#2C685C" stroke="#3C877B"/>
<path d="M112 0.5H104C102.067 0.5 100.5 2.067 100.5 4V12C100.5 13.933 102.067 15.5 104 15.5H112C113.933 15.5 115.5 13.933 115.5 12V4C115.5 2.067 113.933 0.5 112 0.5Z" fill="#004D41" stroke="#006A5C"/>
</g>
<defs>
<clipPath id="clip0_623_17">
<rect width="116" height="53.94" fill="white"/>
</clipPath>
</defs>
</svg>
